<?xml version="1.0" encoding="UTF-8"?>
<svg xmlns="http://www.w3.org/2000/svg" xmlns:xlink="http://www.w3.org/1999/xlink" width="150px" height="150px" viewBox="0 0 256 256" version="1.1">
<g id="surface1">
<path style=" stroke:none;fill-rule:nonzero;fill:rgb(96.862745%,87.45098%,11.764706%);fill-opacity:1;" d="M 38.398438 0 L 217.601562 0 C 238.808594 0 256 17.191406 256 38.398438 L 256 217.601562 C 256 238.808594 238.808594 256 217.601562 256 L 38.398438 256 C 17.191406 256 0 238.808594 0 217.601562 L 0 38.398438 C 0 17.191406 17.191406 0 38.398438 0 Z M 38.398438 0 "/>
<path style=" stroke:none;fill-rule:nonzero;fill:rgb(0%,0%,0%);fill-opacity:1;" d="M 162 185 C 167 193.5 174 199.5 185.5 199.5 C 195.5 199.5 202 194.5 202 187.5 C 202 179.5 195.5 176.5 184.5 171.5 L 178.5 169 C 161 161.5 149.5 152.5 149.5 133 C 149.5 115 163 101 184.5 101 C 200 101 211 106.5 218.5 120.5 L 200 132.5 C 196 125 191.5 122 184.5 122 C 177.5 122 173 126.5 173 132.5 C 173 139.5 177.5 142.5 188 147 L 194 149.5 C 214.5 158.5 226 167 226 187.5 C 226 209 209 221 186 221 C 163.5 221 149 210.5 142 196.5 Z M 77 187 C 81 193.5 84 199.5 92.5 199.5 C 100.5 199.5 105.5 196.5 105.5 184.5 L 105.5 101.5 L 129.5 101.5 L 129.5 183.5 C 129.5 208.5 115 219.5 93.5 219.5 C 74 219.5 63 209.5 57.5 197.5 Z M 77 187 "/>
</g>
</svg>
